<svg xmlns="http://www.w3.org/2000/svg" data-name="Layer 2" viewBox="0 0 100 125" x="0px" y="0px"><title>Explore Data</title><path d="M21.05,69a3,3,0,1,1,3-3A3,3,0,0,1,21.05,69Zm0-5a2,2,0,1,0,2,2A2,2,0,0,0,21.05,64Z"/><path d="M32.05,72a3,3,0,1,1,3-3A3,3,0,0,1,32.05,72Zm0-5a2,2,0,1,0,2,2A2,2,0,0,0,32.05,67Z"/><path d="M34.05,57a3,3,0,1,1,3-3A3,3,0,0,1,34.05,57Zm0-5a2,2,0,1,0,2,2A2,2,0,0,0,34.05,52Z"/><path d="M43.05,52a3,3,0,1,1,3-3A3,3,0,0,1,43.05,52Zm0-5a2,2,0,1,0,2,2A2,2,0,0,0,43.05,47Z"/><circle cx="57.05" cy="21" r="3"/><circle cx="57.05" cy="21" r="2"/><path d="M46.05,65a3,3,0,1,1,3-3A3,3,0,0,1,46.05,65Zm0-5a2,2,0,1,0,2,2A2,2,0,0,0,46.05,60Z"/><path d="M68.05,65a3,3,0,1,1,3-3A3,3,0,0,1,68.05,65Zm0-5a2,2,0,1,0,2,2A2,2,0,0,0,68.05,60Z"/><path d="M77.05,65a3,3,0,1,1,3-3A3,3,0,0,1,77.05,65Zm0-5a2,2,0,1,0,2,2A2,2,0,0,0,77.05,60Z"/><path d="M56.05,56a3,3,0,1,1,3-3A3,3,0,0,1,56.05,56Zm0-5a2,2,0,1,0,2,2A2,2,0,0,0,56.05,51Z"/><circle cx="46.05" cy="83" r="3"/><path d="M81.05,58a3,3,0,1,1,3-3A3,3,0,0,1,81.05,58Zm0-5a2,2,0,1,0,2,2A2,2,0,0,0,81.05,53Z"/><path d="M77.05,44a3,3,0,1,1,3-3A3,3,0,0,1,77.05,44Zm0-5a2,2,0,1,0,2,2A2,2,0,0,0,77.05,39Z"/><path d="M90.05,38a3,3,0,1,1,3-3A3,3,0,0,1,90.05,38Zm0-5a2,2,0,1,0,2,2A2,2,0,0,0,90.05,33Z"/><path d="M22.05,85a3,3,0,1,1,3-3A3,3,0,0,1,22.05,85Zm0-5a2,2,0,1,0,2,2A2,2,0,0,0,22.05,80Z"/><path d="M89.05,91h-80V15a1,1,0,0,1,2,0V89h78a1,1,0,0,1,0,2Z"/><path d="M14.69,83.22c-.38.91-.58,1.44-.58,1.44l-.34.94,1.88.68.34-.94s.18-.5.54-1.34l.39-.92-1.84-.78Z"/><path d="M39.32,57a25.42,25.42,0,0,0-3,1.12l-.91.41.81,1.83L37.1,60a23.44,23.44,0,0,1,2.79-1l1-.29-.57-1.92Z"/><path d="M43.53,56.15l-1,.11.22,2,1-.11A22.35,22.35,0,0,1,46.24,58h1.5V56H46.24A24.46,24.46,0,0,0,43.53,56.15Z"/><path d="M32.53,60.17c-.88.56-1.75,1.18-2.6,1.86l-.79.62,1.24,1.57.79-.62c.8-.63,1.62-1.22,2.44-1.74l.84-.54-1.08-1.68Z"/><path d="M17.95,76.63c-.52.92-1,1.85-1.49,2.78l-.45.89,1.79.9.45-.89c.45-.9.94-1.81,1.44-2.7l.49-.87-1.74-1Z"/><path d="M21.93,70.45c-.62.84-1.22,1.71-1.8,2.59l-.55.84L21.26,75l.55-.84c.56-.85,1.15-1.7,1.74-2.5l.59-.81-1.61-1.19Z"/><path d="M50.88,56h-1l0,2h1l3.11,0h1v-2H54Z"/><path d="M26.75,64.84c-.73.72-1.46,1.5-2.17,2.32l-.66.75,1.51,1.32.66-.75c.68-.78,1.38-1.52,2.07-2.21l.71-.7-1.41-1.42Z"/><path d="M61.14,55.86c-.95.07-1.95.12-3.05.15l-1,0,.06,2,1,0c1.14,0,2.17-.08,3.14-.15l1-.07-.14-2Z"/><path d="M83.24,33.71c-.15,1-.33,2-.52,3l-.2,1,2,.4.2-1c.2-1,.38-2,.54-3.11l.15-1-2-.29Z"/><path d="M78.92,47a18.89,18.89,0,0,1-1.75,2.36l-.66.75L78,51.39l.66-.75A20.8,20.8,0,0,0,80.61,48l.53-.85-1.69-1.06Z"/><path d="M81.73,40.61c-.31,1-.65,1.94-1,2.83l-.38.92,1.85.77.38-.92c.39-.94.75-2,1.08-3l.29-1L82,39.66Z"/><path d="M74.3,51.93a17.32,17.32,0,0,1-2.52,1.48l-.9.43.87,1.8.9-.43a19.3,19.3,0,0,0,2.81-1.66l.81-.58-1.16-1.63Z"/><path d="M68.08,54.77a29.78,29.78,0,0,1-2.93.63l-1,.16.32,2,1-.16a31.24,31.24,0,0,0,3.13-.67l1-.26L69,54.51Z"/><path d="M89.67,29.84,85.05,21l-5.35,8.42,4,.17-.09,1,2,.17.08-1v-.09Z"/><text x="0" y="115" fill="#000000" font-size="5px" font-weight="bold" font-family="'Helvetica Neue', Helvetica, Arial-Unicode, Arial, Sans-serif">Created by Evangeline White</text><text x="0" y="120" fill="#000000" font-size="5px" font-weight="bold" font-family="'Helvetica Neue', Helvetica, Arial-Unicode, Arial, Sans-serif">from the Noun Project</text></svg>